<?xml version="1.0" encoding="UTF-8" standalone="no"?>
<!DOCTYPE svg PUBLIC "-//W3C//DTD SVG 1.1//EN" "http://www.w3.org/Graphics/SVG/1.1/DTD/svg11.dtd">
<svg width="100%" height="100%" viewBox="0 0 300 180" version="1.1" xmlns="http://www.w3.org/2000/svg" xmlns:xlink="http://www.w3.org/1999/xlink" xml:space="preserve" xmlns:serif="http://www.serif.com/" style="fill-rule:evenodd;clip-rule:evenodd;stroke-linejoin:round;stroke-miterlimit:1.41421;">
    <g transform="matrix(0.1,0,0,-0.1,-106.73,285.183)">
        <g transform="matrix(0.426078,0,0,0.426078,1561.26,1072.38)">
            <path d="M3205,3828C3128,3802 3096,3784 3076,3756C3047,3717 2993,3552 2987,3484C2984,3455 2977,3423 2970,3410C2964,3398 2961,3382 2964,3374C2968,3364 2961,3360 2934,3360C2898,3360 2772,3332 2685,3304C2536,3256 2513,3228 2506,3085C2501,2973 2520,2865 2555,2810C2623,2702 2731,2652 2905,2648L3015,2645L3015,2540C3015,2482 3011,2381 3006,2315C2994,2139 2991,1833 3002,1771C3017,1684 3047,1631 3098,1601C3122,1587 3148,1570 3154,1564C3186,1533 3273,1507 3380,1496C3463,1487 3628,1476 3685,1476C3760,1475 3914,1498 3947,1515C3962,1523 3979,1530 3984,1530C3989,1530 4016,1548 4045,1570C4087,1603 4098,1618 4109,1658C4132,1750 4133,1829 4112,1874C4101,1897 4083,1934 4072,1958C4051,2004 3968,2075 3922,2087C3908,2090 3885,2099 3871,2106C3856,2114 3812,2120 3765,2120C3630,2120 3619,2131 3653,2230C3674,2292 3678,2414 3658,2437C3649,2448 3649,2450 3659,2448C3669,2446 3673,2466 3676,2520C3678,2561 3682,2601 3684,2607C3688,2616 3726,2619 3822,2619C3977,2619 3990,2621 4055,2645C4191,2696 4228,2753 4240,2934C4250,3066 4246,3098 4217,3150C4154,3260 4097,3288 3840,3330C3771,3341 3705,3353 3694,3355C3673,3360 3672,3364 3674,3506C3676,3716 3665,3739 3533,3804C3463,3839 3459,3840 3348,3839C3286,3838 3222,3833 3205,3828ZM3517,3714C3554,3690 3563,3632 3555,3458L3548,3300L3594,3279C3631,3263 3663,3258 3743,3258C3799,3257 3849,3254 3855,3251C3860,3248 3871,3245 3880,3245C3909,3242 4015,3209 4050,3191C4109,3160 4124,3121 4128,2995C4131,2891 4130,2882 4103,2830C4080,2785 4065,2770 4020,2745L3965,2715L3770,2712C3663,2711 3572,2706 3567,2701C3557,2691 3557,2683 3559,2454C3560,2365 3556,2281 3551,2269C3522,2193 3517,2161 3531,2128C3538,2110 3551,2090 3560,2083C3584,2064 3668,2042 3761,2031C3940,2010 4019,1925 4008,1761C4004,1709 3998,1688 3979,1666C3909,1585 3771,1562 3450,1580C3303,1588 3279,1592 3234,1615C3167,1648 3142,1677 3131,1731C3126,1755 3119,1786 3116,1800C3109,1829 3108,2161 3115,2205C3117,2222 3122,2294 3125,2365C3128,2437 3133,2527 3136,2565C3139,2609 3136,2652 3128,2680C3109,2743 3084,2753 2930,2757C2745,2762 2725,2766 2686,2804C2644,2846 2618,2935 2621,3028C2624,3158 2628,3163 2748,3207C2837,3240 2915,3259 2970,3261C3032,3263 3061,3272 3074,3295C3080,3305 3090,3320 3096,3326C3102,3333 3110,3380 3113,3432C3124,3600 3172,3698 3253,3719C3318,3735 3339,3737 3420,3733C3462,3731 3505,3722 3517,3714Z" style="fill-rule:nonzero;"/>
        </g>
        <g transform="matrix(0.426078,0,0,0.426078,1561.26,1072.38)">
            <path d="M1378,3333C1357,3331 1340,3325 1340,3321C1340,3316 1312,3314 1278,3317C1217,3321 1155,3311 1075,3285C1053,3277 1019,3268 1000,3265C981,3261 933,3241 895,3221C856,3201 797,3172 763,3157C730,3141 689,3116 674,3101C658,3086 633,3067 619,3058C592,3041 540,2959 540,2934C540,2927 534,2915 527,2908C493,2873 452,2620 481,2620C492,2620 492,2618 480,2610C458,2596 457,1534 480,1520C492,1512 493,1508 482,1501C472,1495 470,1476 474,1429C477,1394 482,1336 484,1300C487,1264 497,1141 505,1025C529,707 565,508 612,432C641,384 700,351 783,336C823,328 875,315 900,305C983,274 1180,290 1265,334C1282,343 1301,350 1308,350C1328,350 1409,430 1424,464C1473,576 1498,763 1481,885C1469,968 1456,1210 1455,1365L1455,1474L1495,1497C1525,1515 1545,1519 1575,1516C1597,1513 1640,1508 1671,1504C1730,1497 1824,1518 1865,1546C1876,1554 1902,1565 1923,1571C1943,1576 1985,1601 2015,1625C2045,1650 2074,1670 2079,1670C2101,1670 2309,1888 2339,1943C2423,2092 2452,2213 2452,2419C2452,2563 2430,2744 2409,2764C2404,2770 2400,2783 2400,2795C2400,2856 2292,3056 2233,3103C2220,3113 2204,3127 2197,3133C2149,3179 1985,3270 1952,3270C1942,3270 1930,3274 1924,3279C1909,3292 1800,3318 1725,3325C1538,3342 1540,3342 1540,3326C1540,3317 1536,3310 1530,3310C1525,3310 1520,3317 1520,3325C1520,3340 1473,3343 1378,3333ZM1753,3208C1850,3187 1993,3135 2050,3102C2187,3021 2250,2924 2303,2715C2335,2589 2344,2410 2325,2285C2321,2263 2316,2229 2314,2208C2309,2168 2270,2067 2243,2022C2169,1902 1993,1740 1870,1679C1840,1664 1787,1642 1753,1631C1699,1613 1681,1611 1623,1620C1537,1632 1421,1635 1392,1626C1380,1622 1369,1611 1368,1602C1367,1593 1366,1578 1365,1570C1365,1562 1360,1549 1356,1541C1342,1520 1346,1186 1359,1182C1368,1179 1368,1174 1360,1165C1352,1155 1352,1120 1358,1043C1371,900 1366,668 1350,605C1328,521 1280,456 1217,426C1097,369 987,365 844,411C735,446 706,469 696,530C693,552 686,570 681,570C677,570 673,582 672,598C672,613 667,650 661,680C656,710 649,758 647,785C644,813 637,880 631,935C625,990 613,1123 604,1230C595,1337 586,1441 584,1460C582,1479 580,1570 580,1662C580,1763 576,1831 570,1835C564,1839 563,1846 567,1853C571,1859 575,1966 576,2090C582,2602 585,2702 592,2706C597,2709 600,2724 600,2740C600,2811 671,2947 733,2994C776,3027 1023,3150 1046,3150C1057,3150 1076,3156 1090,3163C1104,3170 1149,3182 1190,3189C1231,3197 1281,3206 1300,3211C1347,3221 1701,3219 1753,3208Z" style="fill-rule:nonzero;"/>
        </g>
        <g transform="matrix(0.426078,0,0,0.426078,1561.26,1072.38)">
            <path d="M1341,2731C1262,2726 1245,2721 1230,2703C1213,2682 1194,2558 1205,2540C1208,2535 1214,2478 1220,2413C1231,2259 1256,2203 1329,2166C1377,2141 1439,2136 1553,2150C1665,2164 1731,2187 1767,2226C1797,2259 1807,2278 1830,2352C1861,2452 1856,2521 1812,2569C1805,2576 1792,2593 1784,2605C1776,2617 1739,2648 1702,2673C1607,2739 1567,2745 1341,2731ZM1605,2617C1622,2611 1640,2601 1646,2595C1653,2590 1670,2576 1684,2566C1699,2555 1709,2542 1707,2536C1705,2530 1709,2519 1717,2512C1732,2496 1734,2441 1721,2408C1716,2395 1709,2374 1706,2360C1701,2335 1635,2282 1617,2288C1612,2289 1587,2284 1561,2276C1536,2268 1487,2258 1453,2254C1396,2248 1390,2250 1367,2272C1348,2291 1340,2312 1336,2356C1332,2389 1326,2444 1321,2478C1315,2528 1316,2543 1327,2547C1334,2550 1340,2560 1340,2570C1340,2594 1351,2600 1419,2615C1494,2630 1569,2631 1605,2617Z" style="fill-rule:nonzero;"/>
        </g>
    </g>
</svg>
